<svg width="82" height="83" viewBox="0 0 82 83" fill="none" xmlns="http://www.w3.org/2000/svg">
<path d="M16.9442 14.0438C17.6695 14.7835 18.1632 15.587 18.4253 16.4541C18.6808 17.3146 18.6989 18.1662 18.4794 19.0089C18.2599 19.8515 17.8003 20.6159 17.1006 21.302C16.4075 21.9816 15.6376 22.4228 14.7908 22.6257C13.944 22.8286 13.0929 22.7938 12.2376 22.5214C11.3889 22.2425 10.602 21.7332 9.87662 20.9935C9.14475 20.2471 8.65105 19.4436 8.3955 18.5831C8.13342 17.7159 8.10878 16.8643 8.32159 16.0282C8.54107 15.1856 9.00068 14.4212 9.70041 13.735C10.4001 13.0489 11.1701 12.6077 12.0102 12.4113C12.857 12.2085 13.7081 12.2432 14.5634 12.5156C15.4187 12.788 16.2123 13.2974 16.9442 14.0438ZM15.6047 15.3572C15.095 14.8374 14.5639 14.4758 14.0115 14.2724C13.4591 14.069 12.9184 14.0241 12.3893 14.1377C11.8536 14.2446 11.3592 14.5202 10.906 14.9646C10.4595 15.4024 10.1742 15.8913 10.0501 16.4313C9.92616 16.9581 9.96044 17.4996 10.153 18.0559C10.3455 18.6122 10.6966 19.1502 11.2063 19.67C11.716 20.1898 12.2503 20.5548 12.8093 20.7649C13.3617 20.9683 13.9024 21.0132 14.4315 20.8996C14.9673 20.7795 15.4584 20.5005 15.9049 20.0627C16.3581 19.6183 16.6467 19.1328 16.7707 18.606C16.8881 18.0725 16.8505 17.5277 16.658 16.9714C16.4589 16.4084 16.1078 15.8704 15.6047 15.3572Z" fill="white"/>
<path d="M23.3768 3.75216L26.6862 13.4363L24.9905 14.0158L21.6811 4.33164L23.3768 3.75216ZM27.6782 9.36899L25.1347 10.2382L24.6186 8.72796L26.8045 7.98097C27.3874 7.78178 27.7791 7.48514 27.9798 7.09108C28.1863 6.68516 28.199 6.21724 28.018 5.68733C27.8369 5.15742 27.5435 4.80397 27.1378 4.62698C26.7409 4.44698 26.2599 4.45356 25.6946 4.64672L23.3233 5.45708L22.8072 3.94683L25.5097 3.02329C26.1633 2.79994 26.7738 2.73926 27.3413 2.84124C27.9087 2.94322 28.4064 3.1874 28.8344 3.57377C29.2593 3.95132 29.5804 4.45804 29.7977 5.09394C30.009 5.71217 30.0651 6.30943 29.9662 6.88573C29.8642 7.45319 29.6215 7.95531 29.2381 8.39208C28.8518 8.82001 28.3318 9.14565 27.6782 9.36899Z" fill="white"/>
<path d="M43.8602 10.683L37.5222 10.205L38.2918 0L44.6298 0.477976L44.5056 2.1253L39.3263 1.73471L39.9977 1.20971L39.7566 4.40663L43.833 4.71405L43.714 6.29157L39.6376 5.98415L39.3902 9.26483L38.8051 8.64508L43.9844 9.03568L43.8602 10.683Z" fill="white"/>
<path d="M51.4291 12.4748L49.8886 11.6154L54.8744 2.67799L56.4271 3.54418L57.1513 13.1661L56.699 12.9137L60.6207 5.88359L62.1612 6.74296L57.1755 15.6804L55.635 14.821L54.8917 5.20453L55.3441 5.45689L51.4291 12.4748Z" fill="white"/>
<path d="M77.659 23.2824L68.1798 27.1396L67.5043 25.4798L76.9836 21.6225L77.659 23.2824ZM77.8385 28.1065L75.5062 22.3748L77.0364 21.7522L79.3687 27.4838L77.8385 28.1065ZM73.4923 29.0891L71.4239 24.0058L72.9151 23.399L74.9836 28.4822L73.4923 29.0891Z" fill="white"/>
<path d="M76.3082 46.419C75.2733 46.3708 74.3648 46.1182 73.5825 45.6612C72.8096 45.2047 72.2168 44.5931 71.8041 43.8264C71.3913 43.0597 71.2078 42.1869 71.2534 41.2079C71.2986 40.2383 71.5624 39.391 72.0447 38.666C72.5269 37.941 73.1741 37.3872 73.9861 37.0046C74.7977 36.6314 75.721 36.4689 76.7559 36.5171C77.8001 36.5658 78.7086 36.8184 79.4815 37.2749C80.2637 37.7318 80.8615 38.339 81.2746 39.0964C81.6874 39.8631 81.8709 40.7359 81.8253 41.7149C81.7796 42.6938 81.5159 43.5411 81.034 44.2568C80.5517 44.9817 79.9046 45.5355 79.0925 45.9181C78.2805 46.3007 77.3524 46.4677 76.3082 46.419ZM76.3956 44.545C77.1228 44.5789 77.758 44.4824 78.3011 44.2555C78.8443 44.0285 79.271 43.6934 79.5813 43.25C79.901 42.8071 80.0756 42.2686 80.1051 41.6347C80.1343 41.01 80.0105 40.4576 79.7339 39.9776C79.4662 39.5072 79.0725 39.1338 78.5528 38.8573C78.0331 38.5808 77.4097 38.4256 76.6825 38.3917C75.9553 38.3578 75.3154 38.4541 74.7629 38.6806C74.2198 38.9076 73.793 39.2427 73.4827 39.6861C73.172 40.1388 73.002 40.6775 72.9729 41.3021C72.9433 41.9361 73.0624 42.4882 73.3301 42.9585C73.6072 43.4293 74.0055 43.8029 74.5252 44.0794C75.0542 44.3564 75.6777 44.5116 76.3956 44.545Z" fill="white"/>
<path d="M69.559 53.4804L70.4225 51.9102L79.3901 56.8415L77.5079 60.2641C76.9503 61.2782 76.2709 61.9325 75.4699 62.227C74.6644 62.5296 73.82 62.4381 72.9367 61.9524C72.3397 61.6241 71.905 61.204 71.6327 60.692C71.364 60.1928 71.2654 59.6166 71.3369 58.9636L66.719 58.645L67.6634 56.9276L71.8489 57.248L72.9081 55.322L69.559 53.4804ZM77.1281 57.6427L74.2943 56.0843L73.2756 57.9367C73.0013 58.4356 72.9144 58.8938 73.0151 59.3113C73.1157 59.7288 73.3909 60.0612 73.8407 60.3085C74.2905 60.5559 74.7105 60.6057 75.1005 60.4581C75.4988 60.315 75.8351 59.9939 76.1094 59.4951L77.1281 57.6427Z" fill="white"/>
<path d="M55.2862 69.2501L61.3474 78.0428L59.5763 78.6174L56.3639 73.9783C56.1976 73.7379 56.03 73.4783 55.861 73.1995C55.6949 72.9296 55.5073 72.5931 55.298 72.19C55.3592 72.6509 55.4004 73.0349 55.4216 73.3421C55.4367 73.661 55.449 73.971 55.4584 74.2721L55.5812 79.9135L53.7036 80.5227L50.5312 75.8706C50.362 75.6213 50.1929 75.3573 50.024 75.0785C49.8461 74.8025 49.651 74.4734 49.4386 74.0909C49.4967 74.5725 49.5364 74.9668 49.5575 75.2739C49.5727 75.5928 49.5836 75.8837 49.5904 76.1464L49.6952 81.8231L47.9641 82.3847L47.7623 71.6911L49.4135 71.1554L53.7893 77.5659L53.6216 69.7902L55.2862 69.2501Z" fill="white"/>
<path d="M29.7822 76.6493C30.0016 75.6368 30.4015 74.7828 30.982 74.0873C31.5605 73.4009 32.262 72.9179 33.0866 72.6382C33.9112 72.3585 34.8024 72.3224 35.7602 72.5299C36.7088 72.7355 37.5006 73.1362 38.1354 73.7322C38.7703 74.3282 39.2089 75.0583 39.4514 75.9226C39.6848 76.7849 39.6917 77.7223 39.4723 78.7348C39.2509 79.7564 38.851 80.6104 38.2725 81.2968C37.6921 81.9923 36.9941 82.4809 36.1786 82.7626C35.354 83.0423 34.4628 83.0784 33.505 82.8709C32.5473 82.6633 31.7555 82.2626 31.1298 81.6686C30.4949 81.0726 30.0563 80.3425 29.8138 79.4782C29.5713 78.6139 29.5608 77.671 29.7822 76.6493ZM31.6156 77.0466C31.4615 77.7581 31.4512 78.4005 31.5848 78.9738C31.7184 79.5471 31.9781 80.0236 32.3638 80.4032C32.7475 80.792 33.2494 81.0535 33.8697 81.1879C34.4809 81.3204 35.0461 81.2901 35.5654 81.097C36.0737 80.9111 36.5073 80.5848 36.8662 80.1183C37.2252 79.6517 37.4817 79.0627 37.6359 78.3512C37.7901 77.6397 37.8013 76.9928 37.6697 76.4103C37.5361 75.837 37.2764 75.3606 36.8908 74.9809C36.4959 74.5993 35.993 74.3423 35.3818 74.2099C34.7615 74.0755 34.1973 74.1012 33.6891 74.2872C33.1788 74.4822 32.7443 74.813 32.3853 75.2796C32.0244 75.7553 31.7678 76.3443 31.6156 77.0466Z" fill="white"/>
<path d="M23.9405 68.8238L25.3465 69.9349L19.0012 77.9644L15.9366 75.5426C15.0285 74.825 14.4955 74.0469 14.3374 73.2082C14.1721 72.3638 14.4019 71.5461 15.0268 70.7552C15.4493 70.2207 15.9355 69.8614 16.4853 69.6774C17.0221 69.4949 17.6066 69.4928 18.2389 69.6713L19.3161 65.1694L20.8539 66.3847L19.8463 70.4597L21.5708 71.8225L23.9405 68.8238ZM18.5847 75.6011L20.5899 73.0637L18.9313 71.753C18.4846 71.4 18.0471 71.2386 17.6187 71.2689C17.1903 71.2992 16.817 71.5157 16.4987 71.9184C16.1804 72.3212 16.0619 72.7271 16.143 73.1362C16.2184 73.5526 16.4794 73.9374 16.9261 74.2904L18.5847 75.6011Z" fill="white"/>
<path d="M2.2569 58.6825L12.9516 60.7101L10.5713 61.9285L3.22016 60.5643L2.2569 58.6825ZM5.10842 64.2531L14.2183 59.5898L15.0348 61.185L5.92496 65.8482L5.10842 64.2531ZM9.49037 60.1856L7.59644 59.8654L11.3476 53.9819L12.2917 55.8263L9.49037 60.1856Z" fill="white"/>
<path d="M6.76386 41.4018C6.51723 41.2528 6.20514 41.1014 5.8276 40.9476C5.45006 40.7937 5.05144 40.661 4.63172 40.5495C4.20374 40.4277 3.81347 40.3476 3.46089 40.3091C3.10832 40.2706 2.72386 40.2662 2.30752 40.2959C1.88291 40.3153 1.46969 40.3594 1.06785 40.4282C0.65775 40.4867 0.3018 40.5653 0 40.6638C0.35461 40.1673 0.645285 39.6545 0.872024 39.1253C1.08949 38.5951 1.22454 38.0887 1.27718 37.6063C1.33084 37.1145 1.30867 36.5863 1.21066 36.0217C1.1044 35.4468 0.930654 34.888 0.68943 34.3453C0.936061 34.4942 1.25278 34.6462 1.6396 34.801C2.02642 34.9559 2.42918 35.0937 2.84788 35.2145C3.25831 35.325 3.63982 35.3995 3.99239 35.438C4.35425 35.4775 4.75726 35.4839 5.20144 35.4573C5.63634 35.4296 6.05934 35.3819 6.47046 35.3141C6.87229 35.2452 7.1999 35.1683 7.45329 35.0833C6.70509 36.1753 6.27937 37.1944 6.17611 38.1408C6.07183 39.0965 6.26775 40.1835 6.76386 41.4018ZM4.79446 39.1871C4.75195 39.0604 4.72378 38.8884 4.70996 38.6709C4.68685 38.4524 4.68846 38.2226 4.71478 37.9814C4.7411 37.7401 4.7891 37.5153 4.85878 37.307C4.91917 37.0976 4.98379 36.9357 5.05262 36.8212C4.95477 36.8574 4.78734 36.8861 4.55032 36.9072C4.30504 36.918 4.06642 36.9107 3.83446 36.8854C3.57467 36.8571 3.33546 36.8122 3.11683 36.7508C2.89921 36.6801 2.74655 36.6165 2.65883 36.56C2.69206 36.6856 2.72022 36.8577 2.74333 37.0762C2.76644 37.2946 2.76483 37.5245 2.73851 37.7657C2.71219 38.007 2.66419 38.2317 2.59451 38.4401C2.52484 38.6484 2.46022 38.8104 2.40067 38.9259C2.52736 38.8834 2.70407 38.8557 2.9308 38.8429C3.14825 38.8291 3.37759 38.8354 3.61882 38.8617C3.85078 38.887 4.07607 38.9303 4.2947 38.9918C4.51333 39.0532 4.67992 39.1183 4.79446 39.1871Z" fill="white"/>
</svg>
